<?xml version="1.0" ?><svg style="enable-background:new 0 0 512 512;" version="1.1" viewBox="0 0 512 512" xml:space="preserve" xmlns="http://www.w3.org/2000/svg" xmlns:xlink="http://www.w3.org/1999/xlink"><g id="_x33_6_x2C__Ban_x2C__cancel_x2C__no_travel_x2C__stop"><g id="XMLID_3904_"><g id="XMLID_3905_"><path d="M156,161c-2.761,0-5-2.239-5-5V55c0-2.761,2.239-5,5-5s5,2.239,5,5v101     C161,158.761,158.761,161,156,161z" id="XMLID_1011_" style="fill:#938992;"/><path d="M246,161c-2.761,0-5-2.239-5-5V55c0-2.761,2.239-5,5-5s5,2.239,5,5v101     C251,158.761,248.761,161,246,161z" id="XMLID_1010_" style="fill:#938992;"/><path d="M263.07,37.93c1.81,1.81,2.93,4.31,2.93,7.07c0,5.52-4.48,10-10,10h-10h-90h-10     c-2.76,0-5.26-1.12-7.07-2.93C137.12,50.26,136,47.76,136,45c0-5.52,4.48-10,10-10h110C258.76,35,261.26,36.12,263.07,37.93z" id="XMLID_1009_" style="fill:#AFA3AE;"/><path d="M166,446v9c0,11.05-8.95,20-20,20c-5.52,0-10.52-2.24-14.14-5.86     c-3.62-3.62-5.86-8.62-5.86-14.14v-9H166z" id="XMLID_1008_" style="fill:#938992;"/><path d="M276,446v9c0,11.05-8.95,20-20,20c-5.52,0-10.52-2.24-14.14-5.86     c-3.62-3.62-5.86-8.62-5.86-14.14v-9H276z" id="XMLID_1007_" style="fill:#938992;"/><circle cx="431" cy="390" id="XMLID_1006_" r="35" style="fill:#FEE45A;"/><path d="M66,80c11.05,0,20,8.95,20,20s-8.95,20-20,20s-20-8.95-20-20S54.95,80,66,80z" id="XMLID_1005_" style="fill:#FEE45A;"/><circle cx="458.5" cy="297.5" id="XMLID_1004_" r="7.5" style="fill:#99E6FC;"/><circle cx="443.5" cy="57.5" id="XMLID_1003_" r="7.5" style="fill:#99E6FC;"/><path d="M371,75c55.23,0,100,44.77,100,100s-44.77,100-100,100     c-44.442,0-81.922-28.969-95-68.7V206h-0.1c-5.424-16.648-6.179-34.035-3.09-50C281.68,109.86,322.27,75,371,75z M432.37,215.16     c18.66-28.45,15.49-67.01-9.52-92.01c-25-25.01-63.56-28.18-92.01-9.52L432.37,215.16z M411.16,236.37L309.63,134.84     c-18.66,28.45-15.49,67.01,9.52,92.01C344.15,251.86,382.71,255.03,411.16,236.37z" id="XMLID_3948_" style="fill:#F07281;"/><circle cx="378.5" cy="462.5" id="XMLID_999_" r="7.5" style="fill:#99E6FC;"/><circle cx="353.5" cy="337.5" id="XMLID_998_" r="7.5" style="fill:#99E6FC;"/><path d="M316,396v21.67c0,15.64-12.69,28.33-28.33,28.33c-46.414,0-149.208,0-173.34,0     C98.69,446,86,433.31,86,417.67V396C128.23,396,292.298,396,316,396z" id="XMLID_997_" style="fill:#AFA3AE;"/><path d="M316,258.52V396h-40v-1V206.3C283.11,227.9,297.38,246.25,316,258.52z" id="XMLID_996_" style="fill:#70F2A4;"/><path d="M276,395v1h-30V206h29.9c0.03,0.1,0.06,0.2,0.1,0.3V395z" id="XMLID_995_" style="fill:#938992;"/><path d="M275.9,206c-29.091,0-143.545,0-189.9,0v-21.67C86,168.69,98.69,156,114.33,156     c30.896,0,106.241,0,158.48,0C269.722,171.959,270.474,189.344,275.9,206z" id="XMLID_994_" style="fill:#AFA3AE;"/><rect height="190" id="XMLID_993_" style="fill:#70F2A4;" width="30" x="216" y="206"/><rect height="190" id="XMLID_992_" style="fill:#938992;" width="30" x="186" y="206"/><rect height="190" id="XMLID_991_" style="fill:#70F2A4;" width="30" x="156" y="206"/><rect height="190" id="XMLID_990_" style="fill:#938992;" width="30" x="126" y="206"/><circle cx="123.5" cy="82.5" id="XMLID_989_" r="7.5" style="fill:#99E6FC;"/><rect height="190" id="XMLID_988_" style="fill:#70F2A4;" width="40" x="86" y="206"/><circle cx="63.5" cy="452.5" id="XMLID_987_" r="7.5" style="fill:#99E6FC;"/><circle cx="48.5" cy="222.5" id="XMLID_986_" r="7.5" style="fill:#99E6FC;"/></g></g></g><g id="Layer_1"/></svg>